<svg xmlns="http://www.w3.org/2000/svg" viewBox="0 0 1600 1600">
  <defs>
    <style>
      .cls-1 {
        fill: #f7df1e;
      }

      .cls-2 {
        fill: #0fd355;
      }

      .cls-3 {
        fill: #13113a;
      }
    </style>
  </defs>
  <g id="Bg2">
    <rect class="cls-1" width="1600" height="1600"/>
  </g>
  <g id="favicon">
    <rect id="Background" class="cls-2" width="1600" height="1600"/>
    <path id="JS" class="cls-3" d="M1074.6,1250c32.24,52.62,74.17,91.3,148.33,91.3,62.31,0,102.11-31.13,102.11-74.16,0-51.56-40.89-69.82-109.47-99.82L1178,1151.17C1069.47,1105,997.39,1047,997.39,924.61c0-112.77,85.93-198.62,220.21-198.62,95.6,0,164.33,33.27,213.86,120.39l-117.09,75.18c-25.78-46.22-53.59-64.43-96.77-64.43-44,0-71.95,27.94-71.95,64.43,0,45.11,27.93,63.38,92.45,91.31l37.59,16.11c127.76,54.78,199.89,110.64,199.89,236.21,0,135.38-106.35,209.54-249.17,209.54-139.64,0-229.86-66.54-274-153.76Zm-531.17,13c23.62,41.91,45.11,77.35,96.77,77.35,49.4,0,80.57-19.33,80.57-94.49V734.58H871.13v513.31c0,155.7-91.28,226.56-224.53,226.56-120.39,0-190.11-62.3-225.57-137.34Z"/>
  </g>
</svg>
